<svg xmlns="http://www.w3.org/2000/svg" viewBox="0 0 16 16" width="16" height="16" fill="currentColor">
  <path d="M16 8A8 8 0 1 1 0 8a8 8 0 0 1 16 0M3.565 6.136a.837.837 0 0 1-.72-.377A6.471 6.471 0 0 1 2 8c0 1.956.96 3.696 2.404 4.546a.833.833 0 0 1 .718-.375c.04.004.078.01.116.015a6.002 6.002 0 0 0 2.91-1.22c.51-.304 1.107-.63 1.697-.932-.387-.58-.803-1.127-1.2-1.636a.833.833 0 0 1 .721-.377c.038.005.076.01.115.015a6.002 6.002 0 0 0 2.91-1.22c.51-.304 1.107-.63 1.697-.932-.387-.58-.803-1.127-1.2-1.636a.833.833 0 0 1 .72-.377c.04.004.078.01.116.015A6.471 6.471 0 0 1 14 8c0 1.956-.96 3.696-2.404 4.546a.833.833 0 0 1-.718-.375c-.04.004-.078.01-.116.015a6.002 6.002 0 0 0-2.91-1.22c-.51-.304-1.107-.63-1.697-.932.387-.58.803-1.127 1.2-1.636a.833.833 0 0 1-.721-.377c-.038.005-.076.01-.115.015a6.002 6.002 0 0 0-2.91-1.22c-.51-.304-1.107-.63-1.697-.932Z"/>
</svg>
